<svg xmlns="http://www.w3.org/2000/svg" width="2172" height="724" viewBox="0 0 2172 724" role="img" aria-labelledby="title desc">
  <title id="title">John S. Lystad profile banner</title>
  <desc id="desc">John S. Lystad — Computational Statistician, Social Scientist, International Affairs Analyst</desc>
  <rect width="2172" height="724" fill="#090b0f"/>
  <image href="../profile-banner-2026-09-v3/r00_full.webp" x="0" y="0" width="2172" height="156" preserveAspectRatio="none"/>
  <image href="../profile-banner-2026-09-v3/r01_left.webp" x="0" y="156" width="1888" height="91" preserveAspectRatio="none"/>
  <image href="../profile-banner-2026-09-v3/r01_website.webp" x="1888" y="156" width="284" height="91" preserveAspectRatio="none"/>
  <image href="../profile-banner-2026-09-v3/r02_left.webp" x="0" y="247" width="1888" height="81" preserveAspectRatio="none"/>
  <image href="../profile-banner-2026-09-v3/r02_github.webp" x="1888" y="247" width="284" height="81" preserveAspectRatio="none"/>
  <image href="../profile-banner-2026-09-v3/r03_left.webp" x="0" y="328" width="1888" height="82" preserveAspectRatio="none"/>
  <image href="../profile-banner-2026-09-v3/r03_linkedin.webp" x="1888" y="328" width="284" height="82" preserveAspectRatio="none"/>
  <image href="../profile-banner-2026-09-v3/r04_left.webp" x="0" y="410" width="1888" height="91" preserveAspectRatio="none"/>
  <image href="../profile-banner-2026-09-v3/r04_cv.webp" x="1888" y="410" width="284" height="91" preserveAspectRatio="none"/>
  <image href="../profile-banner-2026-09-v3/r05_00_blank0.webp" x="0" y="501" width="90" height="95" preserveAspectRatio="none"/>
  <image href="../profile-banner-2026-09-v3/r05_01_interdisciplinary.webp" x="90" y="501" width="284" height="95" preserveAspectRatio="none"/>
  <image href="../profile-banner-2026-09-v3/r05_02_gap1.webp" x="374" y="501" width="18" height="95" preserveAspectRatio="none"/>
  <image href="../profile-banner-2026-09-v3/r05_03_messy.webp" x="392" y="501" width="250" height="95" preserveAspectRatio="none"/>
  <image href="../profile-banner-2026-09-v3/r05_04_gap2.webp" x="642" y="501" width="18" height="95" preserveAspectRatio="none"/>
  <image href="../profile-banner-2026-09-v3/r05_05_causal.webp" x="660" y="501" width="205" height="95" preserveAspectRatio="none"/>
  <image href="../profile-banner-2026-09-v3/r05_06_gap3.webp" x="865" y="501" width="16" height="95" preserveAspectRatio="none"/>
  <image href="../profile-banner-2026-09-v3/r05_07_unsupervised.webp" x="881" y="501" width="344" height="95" preserveAspectRatio="none"/>
  <image href="../profile-banner-2026-09-v3/r05_08_gap4.webp" x="1225" y="501" width="17" height="95" preserveAspectRatio="none"/>
  <image href="../profile-banner-2026-09-v3/r05_09_multilevel.webp" x="1242" y="501" width="363" height="95" preserveAspectRatio="none"/>
  <image href="../profile-banner-2026-09-v3/r05_10_gap5.webp" x="1605" y="501" width="18" height="95" preserveAspectRatio="none"/>
  <image href="../profile-banner-2026-09-v3/r05_11_visualization.webp" x="1623" y="501" width="218" height="95" preserveAspectRatio="none"/>
  <image href="../profile-banner-2026-09-v3/r05_12_tail.webp" x="1841" y="501" width="331" height="95" preserveAspectRatio="none"/>
  <image href="../profile-banner-2026-09-v3/r06_full.webp" x="0" y="596" width="2172" height="128" preserveAspectRatio="none"/>
</svg>